<svg width="25" height="25" viewBox="0 0 25 25" fill="none" xmlns="http://www.w3.org/2000/svg">
<path d="M4.88192 3.40986C4.78527 3.3132 4.67052 3.23653 4.54423 3.18422C4.41794 3.1319 4.28258 3.10498 4.14589 3.10498C4.0092 3.10498 3.87384 3.1319 3.74755 3.18422C3.62126 3.23653 3.50651 3.3132 3.40986 3.40986C3.21465 3.60506 3.10498 3.86982 3.10498 4.14589C3.10498 4.42196 3.21465 4.68672 3.40986 4.88192L9.24629 10.7184C8.87704 11.4053 8.73893 12.1929 8.85245 12.9645C8.96597 13.736 9.32507 14.4505 9.87652 15.0019C10.428 15.5534 11.1424 15.9125 11.914 16.026C12.6856 16.1395 13.4732 16.0014 14.1601 15.6322L19.9965 21.4686C20.0929 21.5658 20.2076 21.6429 20.3339 21.6955C20.4602 21.7481 20.5957 21.7752 20.7326 21.7752C20.8694 21.7752 21.0049 21.7481 21.1312 21.6955C21.2576 21.6429 21.3722 21.5658 21.4686 21.4686C21.5658 21.3722 21.6429 21.2576 21.6955 21.1312C21.7481 21.0049 21.7752 20.8694 21.7752 20.7326C21.7752 20.5957 21.7481 20.4602 21.6955 20.3339C21.6429 20.2076 21.5658 20.0929 21.4686 19.9965L4.88192 3.40986ZM12.4392 13.9942C12.0268 13.9942 11.6313 13.8304 11.3397 13.5388C11.0481 13.2472 10.8842 12.8516 10.8842 12.4392C10.8842 12.4392 10.8842 12.3874 10.8842 12.3667L12.5014 13.9839L12.4392 13.9942Z" fill="#979797"/>
<path d="M12.6692 17.6235C8.21151 17.7271 5.28811 13.9018 4.37584 12.4401C5.02528 11.4042 5.80578 10.4564 6.69797 9.6204L5.18444 8.15869C4.01438 9.26116 3.012 10.529 2.2092 11.9218C2.11821 12.0794 2.07031 12.2582 2.07031 12.4401C2.07031 12.6221 2.11821 12.8009 2.2092 12.9585C2.8623 14.0884 6.35588 19.6968 12.4619 19.6968H12.721C13.8692 19.6628 15.0025 19.4277 16.0695 19.0023L14.4315 17.3643C13.8555 17.5158 13.2644 17.6028 12.6692 17.6235Z" fill="#979797"/>
<path d="M22.6688 11.919C22.0054 10.7683 18.3459 4.99409 12.157 5.18069C11.0089 5.21475 9.87557 5.44983 8.80859 5.87526L10.4465 7.51319C11.0225 7.36166 11.6136 7.27474 12.2089 7.25402C16.6562 7.13999 19.5796 10.9757 20.5022 12.4374C19.8367 13.4764 19.0387 14.4243 18.1282 15.2571L19.6936 16.7188C20.8783 15.6192 21.8948 14.3513 22.7103 12.9557C22.7951 12.7945 22.8359 12.6138 22.8286 12.4318C22.8213 12.2498 22.7662 12.0729 22.6688 11.919Z" fill="#979797"/>
</svg>
