<svg width="26" height="26" viewBox="0 0 26 26" fill="none" xmlns="http://www.w3.org/2000/svg">
<path d="M23.0546 12.338C22.3911 11.1873 18.7421 5.41304 12.5428 5.59964C6.81003 5.74477 3.49269 10.783 2.59079 12.338C2.4998 12.4956 2.4519 12.6743 2.4519 12.8563C2.4519 13.0383 2.4998 13.217 2.59079 13.3746C3.24389 14.5046 6.73746 20.113 12.8434 20.113H13.1026C18.8354 19.9678 22.1631 14.9296 23.0546 13.3746C23.1456 13.217 23.1935 13.0383 23.1935 12.8563C23.1935 12.6743 23.1456 12.4956 23.0546 12.338ZM13.0508 18.0396C8.58273 18.1433 5.66969 14.318 4.75743 12.8563C5.79409 11.1873 8.4998 7.77664 12.6465 7.67297C17.0938 7.55894 20.0172 11.3946 20.9398 12.8563C19.872 14.5253 17.1974 17.936 13.0508 18.0396Z" fill="#979797"/>
<path d="M12.8229 9.22754C12.1053 9.22754 11.4038 9.44034 10.8071 9.83902C10.2104 10.2377 9.74539 10.8044 9.47077 11.4674C9.19615 12.1304 9.1243 12.8599 9.2643 13.5637C9.4043 14.2676 9.74987 14.9141 10.2573 15.4215C10.7647 15.9289 11.4112 16.2745 12.1151 16.4145C12.8189 16.5545 13.5484 16.4826 14.2114 16.208C14.8744 15.9334 15.4411 15.4684 15.8398 14.8717C16.2385 14.275 16.4513 13.5735 16.4513 12.8559C16.4513 11.8936 16.069 10.9707 15.3885 10.2903C14.7081 9.60981 13.7852 9.22754 12.8229 9.22754ZM12.8229 14.4109C12.5154 14.4109 12.2147 14.3197 11.959 14.1488C11.7033 13.9779 11.504 13.7351 11.3863 13.451C11.2686 13.1668 11.2378 12.8542 11.2978 12.5525C11.3578 12.2509 11.5059 11.9738 11.7234 11.7563C11.9408 11.5389 12.2179 11.3908 12.5196 11.3308C12.8212 11.2708 13.1339 11.3015 13.418 11.4192C13.7021 11.5369 13.945 11.7362 14.1159 11.992C14.2867 12.2477 14.3779 12.5483 14.3779 12.8559C14.3779 13.2683 14.2141 13.6638 13.9225 13.9554C13.6309 14.2471 13.2353 14.4109 12.8229 14.4109Z" fill="#979797"/>
</svg>
